HIERARCHY
ROOT Hips
{
	OFFSET 0.000000 0.000000 0.000000
	CHANNELS 6 Xposition Yposition Zposition Xrotation Yrotation Zrotation
	JOINT LeftUpLeg_virtual
	{
		OFFSET 0.000000 0.000000 0.000000
		CHANNELS 3 Xrotation Yrotation Zrotation
		JOINT LeftUpLeg
		{
			OFFSET 15.427100 -6.655098 0.678600
			CHANNELS 3 Xrotation Yrotation Zrotation
			JOINT LeftLeg
			{
				OFFSET 4.081073 -39.591068 13.024000
				CHANNELS 3 Xrotation Yrotation Zrotation
				JOINT LeftFoot
				{
					OFFSET -4.081074 -37.707932 -15.979700
					CHANNELS 3 Xrotation Yrotation Zrotation
					JOINT LeftToeBase
					{
						OFFSET 5.346399 -15.068900 20.645000
						CHANNELS 3 Xrotation Yrotation Zrotation
						JOINT LeftToe_End
						{
							OFFSET 2.754700 0.931300 11.300900
							CHANNELS 3 Xrotation Yrotation Zrotation
							End Site
							{
								OFFSET 0 0 0
							}
						}
					}
				}
			}
		}
	}
	JOINT RightUpLeg_virtual
	{
		OFFSET 0.000000 0.000000 0.000000
		CHANNELS 3 Xrotation Yrotation Zrotation
		JOINT RightUpLeg
		{
			OFFSET -15.569500 -6.655098 0.678600
			CHANNELS 3 Xrotation Yrotation Zrotation
			JOINT RightLeg
			{
				OFFSET -4.081825 -39.591045 13.023800
				CHANNELS 3 Xrotation Yrotation Zrotation
				JOINT RightFoot
				{
					OFFSET 4.081824 -37.707954 -15.979600
					CHANNELS 3 Xrotation Yrotation Zrotation
					JOINT RightToeBase
					{
						OFFSET -5.346400 -15.068900 20.645000
						CHANNELS 3 Xrotation Yrotation Zrotation
						JOINT RightToe_End
						{
							OFFSET -2.754700 0.931300 11.300900
							CHANNELS 3 Xrotation Yrotation Zrotation
							End Site
							{
								OFFSET 0 0 0
							}
						}
					}
				}
			}
		}
	}
	JOINT Spine_virtual
	{
		OFFSET 0.000000 0.000000 0.000000
		CHANNELS 3 Xrotation Yrotation Zrotation
		JOINT Spine
		{
			OFFSET -0.279200 12.230698 -2.892100
			CHANNELS 3 Xrotation Yrotation Zrotation
			JOINT Spine1
			{
				OFFSET -0.232667 10.192268 -1.242267
				CHANNELS 3 Xrotation Yrotation Zrotation
				JOINT Spine1_split
				{
					OFFSET -0.232667 10.192268 -1.242267
					CHANNELS 3 Xrotation Yrotation Zrotation
					JOINT Spine2
					{
						OFFSET -0.232667 10.192268 -1.242267
						CHANNELS 3 Xrotation Yrotation Zrotation
						JOINT Neck_virtual
						{
							OFFSET 0.000000 0.000000 0.000000
							CHANNELS 3 Xrotation Yrotation Zrotation
							JOINT Neck
							{
								OFFSET -0.418800 17.814194 8.416900
								CHANNELS 3 Xrotation Yrotation Zrotation
								JOINT Head
								{
									OFFSET 0.000000 7.031097 3.806800
									CHANNELS 3 Xrotation Yrotation Zrotation
									JOINT HeadTop_End
									{
										OFFSET 0.000000 24.646606 12.978600
										CHANNELS 3 Xrotation Yrotation Zrotation
										End Site
										{
											OFFSET 0 0 0
										}
									}
								}
							}
						}
						JOINT LeftShoulder_virtual
						{
							OFFSET 0.000000 0.000000 0.000000
							CHANNELS 3 Xrotation Yrotation Zrotation
							JOINT LeftShoulder
							{
								OFFSET 8.476499 7.247704 -3.868750
								CHANNELS 3 Xrotation Yrotation Zrotation
								JOINT LeftShoulder_split
								{
									OFFSET 8.476499 7.247704 -3.868750
									CHANNELS 3 Xrotation Yrotation Zrotation
									JOINT LeftArm
									{
										OFFSET 9.308998 -2.777710 0.208600
										CHANNELS 3 Xrotation Yrotation Zrotation
										JOINT LeftForeArm
										{
											OFFSET 29.972298 0.000000 0.000000
											CHANNELS 3 Xrotation Yrotation Zrotation
											JOINT LeftHand
											{
												OFFSET 26.026505 0.000000 0.000000
												CHANNELS 3 Xrotation Yrotation Zrotation
												End Site
												{
													OFFSET 0 0 0
												}
											}
										}
									}
								}
							}
						}
						JOINT RightShoulder_virtual
						{
							OFFSET 0.000000 0.000000 0.000000
							CHANNELS 3 Xrotation Yrotation Zrotation
							JOINT RightShoulder
							{
								OFFSET -7.570500 7.247704 -3.868750
								CHANNELS 3 Xrotation Yrotation Zrotation
								JOINT RightShoulder_split
								{
									OFFSET -7.570500 7.247704 -3.868750
									CHANNELS 3 Xrotation Yrotation Zrotation
									JOINT RightArm
									{
										OFFSET -9.308998 -2.777710 0.208500
										CHANNELS 3 Xrotation Yrotation Zrotation
										JOINT RightForeArm
										{
											OFFSET -29.972300 0.000000 0.000000
											CHANNELS 3 Xrotation Yrotation Zrotation
											JOINT RightHand
											{
												OFFSET -26.026505 0.000000 0.000000
												CHANNELS 3 Xrotation Yrotation Zrotation
												End Site
												{
													OFFSET 0 0 0
												}
											}
										}
									}
								}
							}
						}
					}
				}
			}
		}
	}
}
MOTION
Frames: 5
Frame Time: 0.03333333
-0.571650 82.972466 6.155148 0.000000 0.000000 0.000000 -15.165279 -1.087430 -5.206085 -27.509591 22.752366 9.724858 39.488189 -8.403059 10.300626 -2.226316 -6.857044 0.103432 -2.705719 0.008373 -1.010504 0.000000 0.000000 0.000000 -14.641127 -0.218867 -5.242133 -14.954069 -32.355159 2.954505 34.358655 9.247345 -12.303332 -1.043869 9.133910 -5.861819 -2.191171 0.514301 0.219270 0.000000 0.000000 0.000000 -14.932849 -1.641448 -5.895173 5.111094 -1.323616 2.665267 13.656373 -0.779689 -0.519140 0.503112 2.238093 -0.395539 0.000000 0.000000 0.000000 12.164382 -0.268201 -0.709974 12.012033 0.797592 1.015970 -2.542137 0.638061 2.908447 0.000000 0.000000 0.000000 12.509596 -0.116715 -0.830051 0.850253 6.810539 -10.182673 -2.028605 -2.573779 -0.636753 65.954581 -67.253171 -4.334603 0.225282 -26.939680 1.225264 0.000000 0.000000 0.000000 12.661491 -0.301581 -0.823673 1.401419 -1.476992 11.777335 6.275198 0.652092 -2.471801 6.577359 35.966458 57.836792 -0.933394 28.150633 0.424118 0.000000 0.000000 0.000000 
-0.583294 82.982117 6.170940 0.000000 0.000000 0.000000 -15.156581 -1.071795 -5.209269 -27.512509 22.762987 9.725214 39.484347 -8.400356 10.306606 -2.216545 -6.853226 0.105744 -2.705961 0.008062 -1.009381 0.000000 0.000000 0.000000 -14.632963 -0.208727 -5.245497 -14.949698 -32.348121 2.957588 34.341300 9.253235 -12.303041 -1.035989 9.149450 -5.849654 -2.216740 0.512661 0.221334 0.000000 0.000000 0.000000 -14.919075 -1.624592 -5.895926 5.102483 -1.320739 2.667036 13.656454 -0.778969 -0.521859 0.501887 2.232684 -0.397723 0.000000 0.000000 0.000000 12.168944 -0.268084 -0.712937 12.017915 0.797801 1.014843 -2.555204 0.645380 2.905859 0.000000 0.000000 0.000000 12.512120 -0.116102 -0.830623 0.848564 6.797159 -10.180415 -2.039135 -2.565604 -0.627193 65.920348 -67.218788 -4.356262 0.212664 -26.942465 1.210336 0.000000 0.000000 0.000000 12.658326 -0.303163 -0.825353 1.401219 -1.482820 11.777200 6.283619 0.647980 -2.468442 6.565278 35.977591 57.845528 -0.935578 28.171310 0.425990 0.000000 0.000000 0.000000 
-0.595030 82.996147 6.184937 0.000000 0.000000 0.000000 -15.141927 -1.030816 -5.214537 -27.514656 22.754652 9.721576 39.470444 -8.406988 10.316593 -2.201026 -6.857049 0.108377 -2.709473 0.007160 -1.004672 0.000000 0.000000 0.000000 -14.618422 -0.184164 -5.252444 -14.935286 -32.373505 2.958477 34.309341 9.260241 -12.297608 -1.031637 9.176915 -5.845652 -2.219676 0.513148 0.226211 0.000000 0.000000 0.000000 -14.897817 -1.593362 -5.899376 5.098213 -1.318975 2.673636 13.654647 -0.783631 -0.524594 0.506637 2.232111 -0.397985 0.000000 0.000000 0.000000 12.172257 -0.273173 -0.716747 12.012744 0.798650 1.030118 -2.579341 0.677549 2.891213 0.000000 0.000000 0.000000 12.513124 -0.121187 -0.830967 0.846492 6.791363 -10.173767 -2.042309 -2.573588 -0.618087 65.670090 -67.200148 -4.576602 0.201699 -26.912274 1.197968 0.000000 0.000000 0.000000 12.653328 -0.310324 -0.827622 1.402297 -1.489243 11.768280 6.290171 0.650949 -2.463311 6.554664 35.984886 57.856996 -0.934105 28.194130 0.427839 0.000000 0.000000 0.000000 
-0.604122 83.008194 6.196884 0.000000 0.000000 0.000000 -15.125464 -0.971341 -5.220327 -27.517922 22.731339 9.714613 39.453744 -8.417097 10.327425 -2.182828 -6.864128 0.118334 -2.714516 0.005777 -0.998213 0.000000 0.000000 0.000000 -14.602603 -0.143858 -5.261206 -14.917306 -32.427532 2.954191 34.269764 9.266321 -12.288734 -1.033326 9.209037 -5.850664 -2.205655 0.516130 0.232571 0.000000 0.000000 0.000000 -14.875592 -1.549388 -5.904040 5.099435 -1.319077 2.683380 13.651549 -0.792895 -0.526779 0.510440 2.237789 -0.400424 0.000000 0.000000 0.000000 12.175865 -0.282752 -0.720050 11.996455 0.800759 1.059595 -2.611318 0.732368 2.864357 0.000000 0.000000 0.000000 12.512684 -0.131030 -0.830386 0.843769 6.794301 -10.162136 -2.041237 -2.589065 -0.609672 65.221606 -67.201862 -4.986511 0.194202 -26.861887 1.190448 0.000000 0.000000 0.000000 12.647572 -0.322248 -0.829774 1.404928 -1.494357 11.751352 6.296424 0.665195 -2.457299 6.548919 35.990316 57.867917 -0.929409 28.213655 0.429910 0.000000 0.000000 0.000000 
-0.610434 83.016319 6.207973 0.000000 0.000000 0.000000 -15.109169 -0.900950 -5.224534 -27.523202 22.698993 9.702536 39.439981 -8.424216 10.335899 -2.167515 -6.868299 0.142714 -2.719024 0.004692 -0.992257 0.000000 0.000000 0.000000 -14.586752 -0.087202 -5.268127 -14.901564 -32.500605 2.940134 34.235350 9.272907 -12.279049 -1.040943 9.240558 -5.852571 -2.202478 0.521455 0.237754 0.000000 0.000000 0.000000 -14.856640 -1.495424 -5.908435 5.106555 -1.322394 2.693502 13.648235 -0.806062 -0.527583 0.513362 2.244222 -0.403960 0.000000 0.000000 0.000000 12.180346 -0.295747 -0.721609 11.970470 0.803937 1.099310 -2.645488 0.808344 2.825494 0.000000 0.000000 0.000000 12.511898 -0.144790 -0.827844 0.840217 6.806893 -10.143223 -2.037617 -2.608631 -0.602684 64.612285 -67.224942 -5.554729 0.192539 -26.798129 1.189426 0.000000 0.000000 0.000000 12.642009 -0.338152 -0.830858 1.408933 -1.496728 11.726263 6.299856 0.686504 -2.449025 6.550611 35.997204 57.872063 -0.922987 28.223166 0.432633 0.000000 0.000000 0.000000 
